<svg xmlns="http://www.w3.org/2000/svg" xmlns:xlink="http://www.w3.org/1999/xlink" contentStyleType="text/css" data-diagram-type="DESCRIPTION" height="1235px" preserveAspectRatio="none" style="width:510px;height:1235px;background:#FFFFFF;" version="1.1" viewBox="0 0 510 1235" width="510px" zoomAndPan="magnify"><defs/><g><!--cluster Konfiguracja--><g id="cluster_Konfiguracja"><rect fill="#FFFFFF" fill-opacity="0.00000" height="342" rx="2.5" ry="2.5" style="stroke:#181818;stroke-width:1;" width="273.44" x="221.81" y="322"/><text fill="#000000" font-family="sans-serif" font-size="14" font-weight="bold" lengthAdjust="spacing" textLength="171.6162" x="272.7219" y="336.9951">Konfiguracja systemu</text></g><!--cluster Zarzadzanie--><g id="cluster_Zarzadzanie"><rect fill="#FFFFFF" fill-opacity="0.00000" height="291" rx="2.5" ry="2.5" style="stroke:#181818;stroke-width:1;" width="291.39" x="212.83" y="7"/><text fill="#000000" font-family="sans-serif" font-size="14" font-weight="bold" lengthAdjust="spacing" textLength="202.9727" x="257.0387" y="21.9951">Zarz&#261;dzanie testami (CLI)</text></g><!--cluster Testowanie--><g id="cluster_Testowanie"><rect fill="#FFFFFF" fill-opacity="0.00000" height="541" rx="2.5" ry="2.5" style="stroke:#181818;stroke-width:1;" width="274.72" x="221.17" y="688"/><text fill="#000000" font-family="sans-serif" font-size="14" font-weight="bold" lengthAdjust="spacing" textLength="90.3301" x="313.365" y="702.9951">Testowanie</text></g><g id="elem_UC_KonfigurujBiblioteke"><ellipse cx="358.5281" cy="384.0036" fill="#F1F1F1" rx="120.7181" ry="26.5436" style="stroke:#181818;stroke-width:0.5;"/><text fill="#000000" font-family="sans-serif" font-size="14" lengthAdjust="spacing" textLength="208.8857" x="254.0852" y="386.8503">Modyfikuj pliki konfiguracyjne</text></g><g id="elem_UC_TworzPipeline"><ellipse cx="358.5259" cy="471.9973" fill="#F1F1F1" rx="87.0559" ry="26.0473" style="stroke:#181818;stroke-width:0.5;"/><text fill="#000000" font-family="sans-serif" font-size="14" lengthAdjust="spacing" textLength="101.6641" x="307.6939" y="466.6955">Tw&#243;rz pipeline</text><text fill="#000000" font-family="sans-serif" font-size="14" lengthAdjust="spacing" textLength="106.873" x="305.0894" y="482.9924">w .gitlab-ci.yml</text></g><g id="elem_UC_TworzMocki"><ellipse cx="358.5331" cy="551.0046" fill="#F1F1F1" rx="79.4731" ry="18.2946" style="stroke:#181818;stroke-width:0.5;"/><text fill="#000000" font-family="sans-serif" font-size="14" lengthAdjust="spacing" textLength="117.2432" x="298.0441" y="554.4437">Tw&#243;rz pliki mock</text></g><g id="elem_UC_TworzSkrypty"><ellipse cx="358.5258" cy="625.9992" fill="#F1F1F1" rx="97.3458" ry="21.8692" style="stroke:#181818;stroke-width:0.5;"/><text fill="#000000" font-family="sans-serif" font-size="14" lengthAdjust="spacing" textLength="158.1904" x="279.4305" y="628.8458">Tw&#243;rz skrypty testowe</text></g><g id="elem_UC_UruchomManager"><ellipse cx="358.5305" cy="259.9961" fill="#F1F1F1" rx="99.2305" ry="22.2461" style="stroke:#181818;stroke-width:0.5;"/><text fill="#000000" font-family="sans-serif" font-size="14" lengthAdjust="spacing" textLength="162.3604" x="277.3503" y="262.8428">Uruchom test manager</text></g><g id="elem_UC_GenerujKod"><ellipse cx="358.5254" cy="159.9991" fill="#F1F1F1" rx="115.1654" ry="26.2691" style="stroke:#181818;stroke-width:0.5;"/><text fill="#000000" font-family="sans-serif" font-size="14" lengthAdjust="spacing" textLength="145.1133" x="282.9688" y="155.5983">Generuj kod testowy</text><text fill="#000000" font-family="sans-serif" font-size="14" lengthAdjust="spacing" textLength="140.8955" x="285.0777" y="171.8951">za pomoc&#261; codegen</text></g><g id="elem_UC_ModyfikujInterakcje"><ellipse cx="358.5253" cy="69.9991" fill="#F1F1F1" rx="129.6953" ry="28.3391" style="stroke:#181818;stroke-width:0.5;"/><text fill="#000000" font-family="sans-serif" font-size="14" lengthAdjust="spacing" textLength="180.0928" x="265.4789" y="65.5982">Modyfikuj/usu&#324; interakcje</text><text fill="#000000" font-family="sans-serif" font-size="14" lengthAdjust="spacing" textLength="55.5146" x="327.768" y="81.8951">testowe</text></g><g id="elem_UC_UruchomTesty"><ellipse cx="358.5315" cy="1099.0023" fill="#F1F1F1" rx="121.3615" ry="26.6723" style="stroke:#181818;stroke-width:0.5;"/><text fill="#000000" font-family="sans-serif" font-size="14" lengthAdjust="spacing" textLength="103.2705" x="306.8962" y="1093.7005">Uruchom testy</text><text fill="#000000" font-family="sans-serif" font-size="14" lengthAdjust="spacing" textLength="159.6943" x="278.6843" y="1109.9974">w trybie console lub UI</text></g><g id="elem_UC_WalidujMocki"><ellipse cx="358.5315" cy="1187.0015" fill="#F1F1F1" rx="81.0715" ry="26.0915" style="stroke:#181818;stroke-width:0.5;"/><text fill="#000000" font-family="sans-serif" font-size="14" lengthAdjust="spacing" textLength="98.1982" x="306.4324" y="1182.6006">Waliduj mocki</text><text fill="#000000" font-family="sans-serif" font-size="14" lengthAdjust="spacing" textLength="94.5137" x="308.2746" y="1198.8975">(mockTest.js)</text></g><g id="elem_UC_GenerujZrzuty"><ellipse cx="358.5304" cy="918.9961" fill="#F1F1F1" rx="96.4804" ry="21.6961" style="stroke:#181818;stroke-width:0.5;"/><text fill="#000000" font-family="sans-serif" font-size="14" lengthAdjust="spacing" textLength="156.2695" x="280.3956" y="921.8428">Generuj zrzuty ekranu</text></g><g id="elem_UC_PorownajZrzuty"><ellipse cx="358.5267" cy="997.9953" fill="#F1F1F1" rx="100.5267" ry="22.5053" style="stroke:#181818;stroke-width:0.5;"/><text fill="#000000" font-family="sans-serif" font-size="14" lengthAdjust="spacing" textLength="165.2178" x="275.9178" y="1000.842">Por&#243;wnuj zrzuty ekranu</text></g><g id="elem_UC_GenerujRaporty"><ellipse cx="358.5343" cy="836.0042" fill="#F1F1F1" rx="90.5443" ry="26.1542" style="stroke:#181818;stroke-width:0.5;"/><text fill="#000000" font-family="sans-serif" font-size="14" lengthAdjust="spacing" textLength="111.2344" x="299.9171" y="831.6034">Generuj raporty</text><text fill="#000000" font-family="sans-serif" font-size="14" lengthAdjust="spacing" textLength="58.7002" x="326.1842" y="847.9002">z test&#243;w</text></g><g id="elem_UC_PrzejrzyjRaporty"><ellipse cx="358.5323" cy="749.0001" fill="#F1F1F1" rx="103.1923" ry="26.2201" style="stroke:#181818;stroke-width:0.5;"/><text fill="#000000" font-family="sans-serif" font-size="14" lengthAdjust="spacing" textLength="128.6387" x="291.213" y="744.5992">Przegl&#261;daj raporty</text><text fill="#000000" font-family="sans-serif" font-size="14" lengthAdjust="spacing" textLength="58.7002" x="326.1822" y="760.8961">z test&#243;w</text></g><!--entity Programista--><g id="elem_Programista"><ellipse cx="53.9175" cy="559.35" fill="#F1F1F1" rx="8" ry="8" style="stroke:#181818;stroke-width:0.5;"/><path d="M53.9175,567.35 L53.9175,594.35 M40.9175,575.35 L66.9175,575.35 M53.9175,594.35 L40.9175,609.35 M53.9175,594.35 L66.9175,609.35 " fill="#FFFFFF" fill-opacity="0.00000" style="stroke:#181818;stroke-width:0.5;"/><text fill="#000000" font-family="sans-serif" font-size="14" lengthAdjust="spacing" textLength="84.875" x="11.48" y="623.8451">Programista</text></g><!--entity CI_CD--><g id="elem_CI_CD"><ellipse cx="53.9165" cy="1137.4969" fill="#F1F1F1" rx="8" ry="8" style="stroke:#181818;stroke-width:0.5;"/><path d="M53.9165,1145.4969 L53.9165,1172.4969 M40.9165,1153.4969 L66.9165,1153.4969 M53.9165,1172.4969 L40.9165,1187.4969 M53.9165,1172.4969 L66.9165,1187.4969 " fill="#FFFFFF" fill-opacity="0.00000" style="stroke:#181818;stroke-width:0.5;"/><text fill="#000000" font-family="sans-serif" font-size="14" lengthAdjust="spacing" textLength="95.833" x="6" y="1201.992">System CI/CD</text><text fill="#000000" font-family="sans-serif" font-size="14" font-style="italic" lengthAdjust="spacing" textLength="67.2793" x="20.2769" y="1125.6951">&#171;service&#187;</text></g><!--link Programista to UC_KonfigurujBiblioteke--><g id="link_Programista_UC_KonfigurujBiblioteke"><path d="M81.14,550.51 C108.07,513.85 153.25,459.68 204.83,428 C223.52,416.52 239.5855,409.6623 260.7755,403.2723 " fill="#FFFFFF" fill-opacity="0.00000" id="Programista-to-UC_KonfigurujBiblioteke" style="stroke:#181818;stroke-width:1;"/><polygon fill="#181818" points="266.52,401.54,256.7484,400.3088,261.7329,402.9836,259.0581,407.9681,266.52,401.54" style="stroke:#181818;stroke-width:1;"/></g><!--link Programista to UC_TworzPipeline--><g id="link_Programista_UC_TworzPipeline"><path d="M96.75,567.58 C108.11,561.82 120.42,555.63 131.83,550 C164.1,534.09 171.17,527.7 204.83,515 C232.15,504.69 257.2244,497.1027 284.0244,489.9227 " fill="#FFFFFF" fill-opacity="0.00000" id="Programista-to-UC_TworzPipeline" style="stroke:#181818;stroke-width:1;"/><polygon fill="#181818" points="289.82,488.37,280.0914,486.8353,284.9903,489.6639,282.1617,494.5628,289.82,488.37" style="stroke:#181818;stroke-width:1;"/></g><!--link Programista to UC_TworzMocki--><g id="link_Programista_UC_TworzMocki"><path d="M96.68,583.76 C146.05,577.56 223.0069,567.8985 282.0969,560.4685 " fill="#FFFFFF" fill-opacity="0.00000" id="Programista-to-UC_TworzMocki" style="stroke:#181818;stroke-width:1;"/><polygon fill="#181818" points="288.05,559.72,278.6213,556.8741,283.0891,560.3438,279.6193,564.8116,288.05,559.72" style="stroke:#181818;stroke-width:1;"/></g><!--link Programista to UC_TworzSkrypty--><g id="link_Programista_UC_TworzSkrypty"><path d="M96.68,594.11 C141.75,599.62 208.8243,607.8219 266.1643,614.8319 " fill="#FFFFFF" fill-opacity="0.00000" id="Programista-to-UC_TworzSkrypty" style="stroke:#181818;stroke-width:1;"/><polygon fill="#181818" points="272.12,615.56,263.6719,610.4974,267.157,614.9533,262.7011,618.4383,272.12,615.56" style="stroke:#181818;stroke-width:1;"/></g><!--link Programista to UC_UruchomTesty--><g id="link_Programista_UC_UruchomTesty"><path d="M57.59,627.44 C64.61,718.7 86.29,945.2 131.83,1004 C163.73,1045.17 211.0112,1067.0404 257.6612,1080.3804 " fill="#FFFFFF" fill-opacity="0.00000" id="Programista-to-UC_UruchomTesty" style="stroke:#181818;stroke-width:1;"/><polygon fill="#181818" points="263.43,1082.03,255.8766,1075.7097,258.6227,1080.6553,253.6771,1083.4014,263.43,1082.03" style="stroke:#181818;stroke-width:1;"/></g><!--link Programista to UC_PrzejrzyjRaporty--><g id="link_Programista_UC_PrzejrzyjRaporty"><path d="M56.49,627.36 C61.04,717.07 77.61,936.38 131.83,981 C154.14,999.36 175.98,1000.99 196.83,981 C212.01,966.46 191.79,808.48 204.83,792 C218.67,774.5 233.2994,765.5253 254.6794,759.0253 " fill="#FFFFFF" fill-opacity="0.00000" id="Programista-to-UC_PrzejrzyjRaporty" style="stroke:#181818;stroke-width:1;"/><polygon fill="#181818" points="260.42,757.28,250.6456,756.0708,255.6362,758.7344,252.9727,763.7249,260.42,757.28" style="stroke:#181818;stroke-width:1;"/></g><!--link Programista to UC_WalidujMocki--><g id="link_Programista_UC_WalidujMocki"><path d="M54.09,627.53 C53.77,710.89 61.06,912.39 131.83,1061 C152.81,1105.05 163.54,1117 204.83,1143 C229.23,1158.36 253.3252,1167.0706 280.1952,1173.7106 " fill="#FFFFFF" fill-opacity="0.00000" id="Programista-to-UC_WalidujMocki" style="stroke:#181818;stroke-width:1;"/><polygon fill="#181818" points="286.02,1175.15,278.2424,1169.1077,281.166,1173.9505,276.3232,1176.8741,286.02,1175.15" style="stroke:#181818;stroke-width:1;"/></g><!--link Programista to UC_UruchomManager--><g id="link_Programista_UC_UruchomManager"><path d="M68.88,550.42 C90.24,496.46 135.94,398.61 204.83,341 C236.02,314.91 271.4919,296.1974 303.1419,282.0574 " fill="#FFFFFF" fill-opacity="0.00000" id="Programista-to-UC_UruchomManager" style="stroke:#181818;stroke-width:1;"/><polygon fill="#181818" points="308.62,279.61,298.7712,279.629,304.0549,281.6495,302.0344,286.9332,308.62,279.61" style="stroke:#181818;stroke-width:1;"/></g><!--link UC_UruchomManager to UC_GenerujKod--><g id="link_UC_UruchomManager_UC_GenerujKod"><path d="M358.53,237.31 C358.53,222.21 358.53,208.32 358.53,192.5 " fill="#FFFFFF" fill-opacity="0.00000" id="UC_UruchomManager-to-UC_GenerujKod" style="stroke:#181818;stroke-width:1;stroke-dasharray:7.0,7.0;"/><polygon fill="#181818" points="358.53,186.5,354.53,195.5,358.53,191.5,362.53,195.5,358.53,186.5" style="stroke:#181818;stroke-width:1;"/><text fill="#000000" font-family="sans-serif" font-size="13" lengthAdjust="spacing" textLength="63.0068" x="315.53" y="216.5769">&#171;include&#187;</text></g><!--link UC_UruchomManager to UC_ModyfikujInterakcje--><g id="link_UC_UruchomManager_UC_ModyfikujInterakcje"><path d="M273.33,248.24 C231.43,237.4 185.46,216.56 164.2,176.5 C139.54,130.03 190.8639,104.3332 249.4539,89.0632 " fill="#FFFFFF" fill-opacity="0.00000" id="UC_UruchomManager-to-UC_ModyfikujInterakcje" style="stroke:#181818;stroke-width:1;stroke-dasharray:7.0,7.0;"/><polygon fill="#181818" points="255.26,87.55,245.5421,85.9491,250.4216,88.811,247.5597,93.6905,255.26,87.55" style="stroke:#181818;stroke-width:1;"/><text fill="#000000" font-family="sans-serif" font-size="13" lengthAdjust="spacing" textLength="63.0068" x="132.83" y="172.5669">&#171;include&#187;</text></g><!--link CI_CD to UC_UruchomTesty--><g id="link_CI_CD_UC_UruchomTesty"><path d="M102.2,1149.62 C146.17,1140.91 206.9647,1128.8575 261.1547,1118.1075 " fill="#FFFFFF" fill-opacity="0.00000" id="CI_CD-to-UC_UruchomTesty" style="stroke:#181818;stroke-width:1;"/><polygon fill="#181818" points="267.04,1116.94,257.4337,1114.7677,262.1356,1117.9129,258.9904,1122.6148,267.04,1116.94" style="stroke:#181818;stroke-width:1;"/></g><!--link CI_CD to UC_WalidujMocki--><g id="link_CI_CD_UC_WalidujMocki"><path d="M102.2,1163.38 C149.74,1167.77 217.8656,1174.0767 274.0156,1179.2767 " fill="#FFFFFF" fill-opacity="0.00000" id="CI_CD-to-UC_WalidujMocki" style="stroke:#181818;stroke-width:1;"/><polygon fill="#181818" points="279.99,1179.83,271.3972,1175.0171,275.0113,1179.3689,270.6595,1182.983,279.99,1179.83" style="stroke:#181818;stroke-width:1;"/></g><!--link UC_UruchomTesty to UC_GenerujZrzuty--><g id="link_UC_UruchomTesty_UC_GenerujZrzuty"><path d="M276.9,1078.95 C251.59,1069.68 225.07,1056.5 204.83,1038 C170.18,1006.32 132.88,975.47 164.2,940.5 C192.96,908.39 235.0217,902.4657 276.1417,905.0357 " fill="#FFFFFF" fill-opacity="0.00000" id="UC_UruchomTesty-to-UC_GenerujZrzuty" style="stroke:#181818;stroke-width:1;stroke-dasharray:7.0,7.0;"/><polygon fill="#181818" points="282.13,905.41,273.397,900.8564,277.1397,905.0981,272.898,908.8408,282.13,905.41" style="stroke:#181818;stroke-width:1;"/><text fill="#000000" font-family="sans-serif" font-size="13" lengthAdjust="spacing" textLength="63.0068" x="132.83" y="953.5669">&#171;include&#187;</text></g><!--link UC_UruchomTesty to UC_PorownajZrzuty--><g id="link_UC_UruchomTesty_UC_PorownajZrzuty"><path d="M358.53,1071.93 C358.53,1055.92 358.53,1041.88 358.53,1026.7 " fill="#FFFFFF" fill-opacity="0.00000" id="UC_UruchomTesty-to-UC_PorownajZrzuty" style="stroke:#181818;stroke-width:1;stroke-dasharray:7.0,7.0;"/><polygon fill="#181818" points="358.53,1020.7,354.53,1029.7,358.53,1025.7,362.53,1029.7,358.53,1020.7" style="stroke:#181818;stroke-width:1;"/><text fill="#000000" font-family="sans-serif" font-size="13" lengthAdjust="spacing" textLength="63.0068" x="315.53" y="1050.9869">&#171;include&#187;</text></g><!--link UC_UruchomTesty to UC_GenerujRaporty--><g id="link_UC_UruchomTesty_UC_GenerujRaporty"><path d="M277.76,1078.75 C218.38,1058.75 150.26,1022.33 164.2,962.5 C173.47,922.69 173.47,906.21 204.83,880 C224.75,863.36 244.8123,854.5169 269.6323,848.0769 " fill="#FFFFFF" fill-opacity="0.00000" id="UC_UruchomTesty-to-UC_GenerujRaporty" style="stroke:#181818;stroke-width:1;stroke-dasharray:7.0,7.0;"/><polygon fill="#181818" points="275.44,846.57,265.7239,844.9586,270.6003,847.8258,267.7331,852.7022,275.44,846.57" style="stroke:#181818;stroke-width:1;"/><text fill="#000000" font-family="sans-serif" font-size="13" lengthAdjust="spacing" textLength="63.0068" x="132.83" y="975.5669">&#171;include&#187;</text></g><!--SRC=[ZLLDQzj04BthLmovD3d4kPVWGnq89WsO9YOG0c4jZPNLnwvOhIgaqakfwM_exyWrjzZ_gxChoV4gKgWljZNptio-dJTASAr1Ir0yVD8GS8M-vb9upDTImKB9KB6KvvgrJuvkgbnZ2hFvsUpY25XElnvd5t1-dgFwpdsSJZtFa30H9WX7LrAiULWevaSCSeijBCm9_F20FaMEFii9T2s3QitZ8e8iuJ67U9zRHG8jV3bxx1YAw0jV9LngZD7bkIrVdrKD6SymuG8VH0cJaEk4hKvzFgdIfAEwBQMg5stQC8Tj99L-x62kwG4V1EIngZ9TWSPSon8Tr4qJytuwKjqpLMytGSq4HmiZuU5uzdL-Oi4cpDfeJw-bAlmdcLeGf4om45LNi8rTDqzTt2KA9Fb8tw3jiteGDODCqa6t6_1bW26AZgfDlvB1o7MT5Ncn-mrSQ5GizYDIl7VyVUfydzDJuTO2p2ajvktlHuUkpDLgLQqepPSYbyIK52jOpdio6BhAvRbZ2Gz817Et_44Scs-JDedoamxTvWpSTYTXhUg2RXjZnKJH4-pUnbpSGghNvrAC8IaiIy46eLr9nJAfpD5hgm7HzUf-Qn9wXLMDOK9pnZvYC5cHggiz1rtI9rZ8acytPWGPr8SEtcwyWrK1fwVJKOCEvBdk6qjen1-BTfQYBYztluoq27Qy3dPODOHs1cCW_aw9WHndFCPhT1wa7k-m5DkDLetmRQ0nEnauhSX3Vb8428A1pD1eZ9qTmUmXQoEZ_Dytkt7lNIsOJ5tdmcTQrIqvhUenm81FUqWwnE6h0EmuSzozK7Ex5uJ2q98CRFkdiIYrNHgTcgQDomZXDM-FeRjm8ex2L7hPiGjisSigfZ6WZWgQHWXam7HCYmTY9Mbn7xUDvoTUhuwhKEEtKP4E4Qv5_mlY-jA5_0C0]--></g></svg>